#!OML:ASF E:\Steps\Project 1\Capture day 1\Session 2\Subject.ASF
:FULLY-SPECIFIED
:DEGREES
158
root 19.4005 16.3748 36.5291 -152.683 -0.623425 178.122
lowerback -31.3209 -1.73909 -6.91637
upperback -2.08575 -0.68188 -0.55765
thorax 14.0225 -1.0848 2.76316
lowerneck -6.78985 -2.3758 4.28595
upperneck 13.0961 -3.92426 -1.13682
head 4.94754 -1.92888 -1.30692
rclavicle -9.69075e-015 2.0276e-014
rhumerus -36.9242 -22.2776 -76.8377
rradius 27.2312
rwrist 1.02025
rhand -7.63387 -50.3137
rfingers 7.12502
rthumb 18.2611 -79.4765
lclavicle -9.69075e-015 2.0276e-014
lhumerus -28.3754 7.7687 80.9289
lradius 17.0688
lwrist -9.06419
lhand -23.1851 -9.89591
lfingers 7.12502
lthumb 3.26432 20.0588
rfemur -22.7172 5.96346 18.5907
rtibia 5.9115
rfoot -18.8412 -5.85642
rtoes -35.2864
lfemur -24.5506 -8.90534 -19.4081
ltibia 7.87312
lfoot -8.5822 2.41671
ltoes -37.5832
159
root 19.4006 16.3714 36.5265 -152.688 -0.62339 178.159
lowerback -31.3555 -1.73327 -6.86832
upperback -2.06372 -0.686842 -0.533753
thorax 14.0647 -1.08475 2.76095
lowerneck -6.8136 -2.38456 4.30714
upperneck 13.0555 -3.92952 -1.17605
head 4.93751 -1.93183 -1.32242
rclavicle 4.82053e-015 -1.55052e-014
rhumerus -36.9583 -22.5422 -76.6626
rradius 27.0901
rwrist 1.37166
rhand -7.66313 -51.369
rfingers 7.12502
rthumb 18.2329 -80.5345
lclavicle 4.82053e-015 -1.55052e-014
lhumerus -28.448 7.84845 80.8463
lradius 16.9577
lwrist -9.24833
lhand -23.153 -9.18331
lfingers 7.12502
lthumb 3.29533 20.771
rfemur -22.6908 5.97103 18.6378
rtibia 5.89959
rfoot -18.8802 -5.8473
rtoes -35.4492
lfemur -24.526 -8.87567 -19.3836
ltibia 7.86959
lfoot -8.68113 2.42144
ltoes -38.0203
160
root 19.4036 16.3719 36.5282 -152.729 -0.676671 178.145
lowerback -31.2926 -1.72865 -6.87301
upperback -2.06426 -0.680171 -0.540024
thorax 14.0361 -1.07979 2.76095
lowerneck -6.6428 -2.40846 4.19777
upperneck 12.8717 -3.95617 -1.00986
head 4.85706 -1.94092 -1.24901
rclavicle 2.93207e-015 -2.38542e-015
rhumerus -37.0693 -22.8147 -76.4957
rradius 26.997
rwrist 1.50588
rhand -7.62302 -51.1383
rfingers 7.12502
rthumb 18.2715 -80.3001
lclavicle 2.93207e-015 -2.38542e-015
lhumerus -28.5037 7.89385 80.7298
lradius 16.8011
lwrist -9.28017
lhand -23.7614 -9.06031
lfingers 7.12502
lthumb 2.70777 20.9022
rfemur -22.6128 6.01339 18.6592
rtibia 5.8816
rfoot -18.9777 -5.97916
rtoes -35.7086
lfemur -24.5083 -8.79515 -19.4203
ltibia 7.92396
lfoot -8.6484 2.287
ltoes -38.6585
161
root 19.4085 16.3748 36.5353 -152.695 -0.797465 178.087
lowerback -31.2102 -1.77486 -6.93864
upperback -2.09037 -0.726749 -0.536395
thorax 13.9738 -1.1026 2.78307
lowerneck -6.78466 -2.44887 4.27289
upperneck 13.1047 -4.01769 -1.16878
head 4.94616 -1.97738 -1.32014
rclavicle -8.24956e-015 -1.94809e-014
rhumerus -37.1421 -22.9689 -76.3808
rradius 26.9309
rwrist 1.54375
rhand -7.5681 -50.9558
rfingers 7.12502
rthumb 18.3244 -80.1127
lclavicle -8.24956e-015 -1.94809e-014
lhumerus -28.5663 8.18325 80.5469
lradius 16.7036
lwrist -9.41694
lhand -22.9067 -9.02714
lfingers 7.12502
lthumb 3.53319 20.9233
rfemur -22.6433 6.22701 18.6037
rtibia 5.88698
rfoot -19.0036 -6.37732
rtoes -35.6872
lfemur -24.6401 -8.67356 -19.4902
ltibia 8.05649
lfoot -8.63078 2.04194
ltoes -39.2109
162
root 19.4115 16.3754 36.5368 -152.668 -0.754548 178.155
lowerback -31.2378 -1.73557 -6.87867
upperback -2.07526 -0.692163 -0.529565
thorax 14.0008 -1.08391 2.7719
lowerneck -6.8906 -2.56241 4.35998
upperneck 13.261 -4.16678 -1.37241
head 5.00147 -2.05889 -1.41044
rclavicle 4.07509e-015 3.4191e-014
rhumerus -37.148 -23.1857 -76.2861
rradius 26.8226
rwrist 1.75615
rhand -7.54336 -50.8298
rfingers 7.12502
rthumb 18.3482 -79.9845
lclavicle 4.07509e-015 3.4191e-014
lhumerus -28.6205 8.54236 80.3357
lradius 16.6411
lwrist -9.75115
lhand -22.4722 -8.82659
lfingers 7.12502
lthumb 3.95283 21.1165
rfemur -22.7194 6.53423 18.6153
rtibia 5.93783
rfoot -19.0866 -6.59657
rtoes -35.4377
lfemur -24.693 -8.50544 -19.433
ltibia 8.08611
lfoot -8.65984 1.95826
ltoes -38.6947
163
root 19.4164 16.3772 36.54 -152.691 -0.860194 178.093
lowerback -31.1803 -1.82705 -6.93914
upperback -2.05551 -0.791008 -0.503373
thorax 14.0086 -1.12999 2.79455
lowerneck -6.84388 -2.46503 4.25517
upperneck 13.0556 -4.03105 -1.18388
head 4.94051 -1.98381 -1.32281
rclavicle 4.47266e-015 -1.23246e-014
rhumerus -37.0987 -23.1478 -76.2871
rradius 26.7262
rwrist 1.81847
rhand -7.71196 -51.1199
rfingers 7.12502
rthumb 18.186 -80.2898
lclavicle 4.47266e-015 -1.23246e-014
lhumerus -28.6885 9.03394 80.0985
lradius 16.5283
lwrist -10.1152
lhand -22.2846 -8.12981
lfingers 7.12502
lthumb 4.13391 21.8098
rfemur -22.6656 6.57306 18.6031
rtibia 5.91986
rfoot -19.1395 -6.71349
rtoes -35.2713
lfemur -24.7464 -8.30226 -19.4976
ltibia 8.18882
lfoot -8.68779 1.61089
ltoes -37.7855
